HIERARCHY
ROOT root     
{
	OFFSET 0.0000 0.0000 0.0000
	CHANNELS 6 Xposition Yposition Zposition Zrotation Yrotation Xrotation
	JOINT pelvis   
	{
		OFFSET 0.0000 0.0000 0.0000
		CHANNELS 3 Zrotation Yrotation Xrotation
		JOINT thorax   
		{
			OFFSET 0.0000 23.0750 -5.0000
			CHANNELS 3 Zrotation Yrotation Xrotation
			JOINT rclavicle
			{
				OFFSET 0.0000 28.0009 0.0000
				CHANNELS 3 Zrotation Yrotation Xrotation
				JOINT rhumerus 
				{
					OFFSET -18.5725 5.5939 0.0000
					CHANNELS 3 Zrotation Yrotation Xrotation
					JOINT rradius  
					{
						OFFSET -24.8459 0.0000 0.0000
						CHANNELS 3 Zrotation Yrotation Xrotation
						JOINT rhand    
						{
							OFFSET -24.5477 0.0000 0.0000
							CHANNELS 3 Zrotation Yrotation Xrotation
							End Site
							{
								OFFSET -8.1826 0.0000 0.0000
							}
						}
					}
				}
			}
			JOINT lclavicle
			{
				OFFSET 0.0000 28.0009 0.0000
				CHANNELS 3 Zrotation Yrotation Xrotation
				JOINT lhumerus 
				{
					OFFSET 18.5725 5.5939 0.0000
					CHANNELS 3 Zrotation Yrotation Xrotation
					JOINT lradius  
					{
						OFFSET 24.8459 0.0000 0.0000
						CHANNELS 3 Zrotation Yrotation Xrotation
						JOINT lhand    
						{
							OFFSET 24.5477 0.0000 0.0000
							CHANNELS 3 Zrotation Yrotation Xrotation
							End Site
							{
								OFFSET 8.1826 0.0000 0.0000
							}
						}
					}
				}
			}
			JOINT head     
			{
				OFFSET 0.0000 35.2030 0.0000
				CHANNELS 3 Zrotation Yrotation Xrotation
				End Site
				{
					OFFSET 0.0000 11.7343 0.0000
				}
			}
		}
		JOINT rfemur   
		{
			OFFSET -8.2817 0.0000 0.0000
			CHANNELS 3 Zrotation Yrotation Xrotation
			JOINT rtibia   
			{
				OFFSET 0.0000 -43.3627 0.0000
				CHANNELS 3 Zrotation Yrotation Xrotation
				JOINT rfoot    
				{
					OFFSET 0.0000 -38.2947 0.0000
					CHANNELS 3 Zrotation Yrotation Xrotation
					JOINT rtoes    
					{
						OFFSET 0.0000 0.0000 16.6054
						CHANNELS 3 Zrotation Yrotation Xrotation
						End Site
						{
							OFFSET 0.0000 0.0000 5.5351
						}
					}
				}
			}
		}
		JOINT lfemur   
		{
			OFFSET 8.2817 0.0000 0.0000
			CHANNELS 3 Zrotation Yrotation Xrotation
			JOINT ltibia   
			{
				OFFSET 0.0000 -43.3627 0.0000
				CHANNELS 3 Zrotation Yrotation Xrotation
				JOINT lfoot    
				{
					OFFSET 0.0000 -38.2947 0.0000
					CHANNELS 3 Zrotation Yrotation Xrotation
					JOINT ltoes    
					{
						OFFSET 0.0000 0.0000 16.6054
						CHANNELS 3 Zrotation Yrotation Xrotation
						End Site
						{
							OFFSET 0.0000 0.0000 5.5351
						}
					}
				}
			}
		}
	}
}
MOTION
Frames: 11
Frame Time: .0333333
86.236 56.336 6.04 46.7552 -84.274 4.854 0 -0 0 0.716933 -9.18155 7.1329 27.5223 -6.58392 -7.94523e-05 59.5947 3.94658 -30.5112 -0 23.006 -0 -18.9442 12.3097 -2.06146 -24.8754 6.85693 -3.99464e-06 -55.9775 -3.17656 -19.4993 0 -24.5753 0 26.1628 -0.736902 -0.171204 2.02807 -0.00530402 -50.5285 -0.00255536 -8.52348 -101.275 -0 -0 106.359 7.21356e-07 -16.0393 -32.2309 8.717 -1.39206e-05 -63.3962 -4.73923 -3.06495 -102.581 -0 -0 104.246 8.66079e-05 20.7924 -32.9593 -11.672 0.000107253 -44.5015 
85.881 56.454 6.0125 46.1711 -84.1631 5.31388 0 -0 0 0.737456 -9.22852 6.85711 27.5495 -6.51129 -3.25272e-05 59.7116 4.33267 -30.0187 -0 23.4003 -0 -18.9988 12.3291 -2.07087 -24.8632 6.67391 3.95462e-05 -56.0816 -3.668 -19.1774 0 -24.6891 0 26.2714 -0.807599 -0.188501 2.13546 -0.0829221 -50.5036 -0.112908 -8.51707 -100.698 -0 -0 106.305 -2.24021e-05 -16.1828 -32.2356 8.79915 -8.20911e-05 -63.6412 -4.61032 -3.10743 -102.078 -0 -0 104.159 -1.05999e-05 20.7895 -32.9287 -11.6609 4.31391e-05 -44.909 
85.511 56.639 5.984 45.6623 -84.035 5.6952 0 -0 0 0.751082 -9.28872 6.5575 27.5685 -6.42858 -8.26032e-05 59.8409 4.69443 -29.5486 -0 23.8066 -0 -19.061 12.3451 -2.08042 -24.8502 6.47651 -1.75551e-05 -56.1692 -4.12733 -18.881 0 -24.8157 0 26.3773 -0.874605 -0.204997 2.2518 -0.15699 -50.4981 -0.24541 -8.51922 -100.034 -0 -0 106.133 8.83294e-05 -16.2902 -32.2402 8.86089 -2.46257e-05 -63.7899 -4.47879 -3.15761 -101.494 -0 -0 103.946 0.000216411 20.7471 -32.8851 -11.6228 -1.13766e-05 -45.2463 
85.123 56.891 5.9548 45.2392 -83.902 5.97107 0 -0 0 0.750155 -9.35798 6.24901 27.5719 -6.35896 2.1621e-05 59.9847 5.06027 -29.0832 -1.38765e-07 24.2038 -6.47182e-07 -19.1402 12.3641 -2.09248 -24.8225 6.30208 -1.89422e-05 -56.2566 -4.60361 -18.5924 1.43687e-07 -24.9284 -6.50049e-07 26.4754 -0.946009 -0.222498 2.37701 -0.225179 -50.5133 -0.399995 -8.52813 -99.2791 -0 -0 105.841 9.10744e-05 -16.3578 -32.2442 8.90003 4.83714e-05 -63.8638 -4.3505 -3.21154 -100.817 -0 -0 103.611 -5.5125e-06 20.6665 -32.835 -11.5588 -4.957e-05 -45.5287 
84.719 57.209 5.9252 44.9046 -83.7516 6.15713 0 -0 0 0.742057 -9.43348 5.91677 27.5582 -6.28407 1.23263e-05 60.1454 5.39608 -28.6397 -0 24.6023 -0 -19.2271 12.3933 -2.10715 -24.7864 6.12153 5.26916e-05 -56.3352 -5.03685 -18.3172 0 -25.0751 0 26.5572 -0.995404 -0.234905 2.50173 -0.285027 -50.5354 -0.57107 -8.5417 -98.4406 -0 -0 105.427 -0.000185358 -16.3866 -32.2382 8.91523 -2.19466e-05 -63.8878 -4.22493 -3.26856 -100.053 -0 -0 103.15 -5.12036e-05 20.5489 -32.7707 -11.4698 4.68084e-05 -45.7921 
84.297 57.593 5.8953 44.6578 -83.5934 6.24692 0 -0 0 0.721945 -9.51043 5.56184 27.5237 -6.20884 -7.29636e-07 60.3228 5.70174 -28.2149 -0 25.0002 -0 -19.3194 12.4382 -2.12524 -24.7358 5.94075 -1.42607e-05 -56.4173 -5.42267 -18.0508 0 -25.2712 0 26.6163 -1.0195 -0.241198 2.62473 -0.335512 -50.5535 -0.75557 -8.55742 -97.5143 -0 -0 104.886 0.000164277 -16.3831 -32.2123 8.90634 4.89019e-05 -63.8955 -4.10477 -3.32636 -99.2015 -0 -0 102.564 -6.75778e-05 20.3997 -32.6784 -11.3536 1.84172e-05 -46.0734 
83.857 58.043 5.8639 44.4317 -83.4445 6.30417 0 -0 0 0.698707 -9.58203 5.17026 27.4654 -6.13336 2.93895e-07 60.5149 5.96312 -27.8077 -0 25.3969 -0 -19.4075 12.5013 -2.14598 -24.6714 5.7595 -2.60474e-05 -56.5065 -5.74019 -17.7848 1.47914e-07 -25.5426 -6.52556e-07 26.6525 -1.0105 -0.239398 2.73969 -0.37656 -50.5507 -0.942224 -8.56665 -96.511 -0 -0 104.209 -0.000157472 -16.3551 -32.149 8.87591 4.31896e-05 -63.9121 -3.98423 -3.37957 -98.2691 -0 -0 101.847 0.000114673 20.2204 -32.543 -11.2075 -7.12702e-05 -46.4152 
83.398 58.555 5.8316 44.3049 -83.282 6.26487 0 -0 0 0.654789 -9.64513 4.75474 27.3842 -6.09088 4.77447e-05 60.7179 6.21708 -27.3906 -0 25.7647 -0 -19.4912 12.5863 -2.17017 -24.574 5.6364 -1.93704e-05 -56.6199 -6.05933 -17.4904 0 -25.8505 0 26.6668 -0.993296 -0.235404 2.85458 -0.409493 -50.5209 -1.13272 -8.57046 -95.4221 -0 -0 103.396 0.000189258 -16.3167 -32.038 8.82664 5.44997e-05 -63.9685 -3.86959 -3.42916 -97.2475 -0 -0 101 -8.96432e-05 20.0198 -32.3466 -11.0311 -8.19215e-06 -46.8479 
82.917 59.132 5.7966 44.1717 -83.1369 6.22622 0 -0 0 0.611404 -9.69431 4.28114 27.2822 -6.03979 -7.59279e-05 60.9243 6.39006 -26.9995 -1.52115e-07 26.1444 -6.55107e-07 -19.5484 12.6852 -2.19395 -24.457 5.49572 -5.24885e-05 -56.7464 -6.24418 -17.1977 0 -26.2987 0 26.6535 -0.936396 -0.221803 2.95913 -0.437225 -50.4376 -1.3105 -8.5581 -94.2555 -0 -0 102.428 -6.2824e-05 -16.2821 -31.8666 8.76602 1.0492e-05 -64.0539 -3.74579 -3.4704 -96.1527 -0 -0 100.018 -7.82774e-05 19.8024 -32.067 -10.822 -6.37771e-05 -47.3898 
82.412 59.77 5.7592 44.0874 -82.9879 6.13807 0 -0 0 0.548397 -9.72757 3.77049 27.1607 -6.03471 1.03986e-05 61.128 6.54601 -26.5907 -0 26.4918 -0 -19.5832 12.7971 -2.21743 -24.2985 5.43643 -7.60767e-06 -56.9109 -6.42417 -16.8591 0 -26.8026 0 26.6175 -0.884801 -0.209296 3.06534 -0.464443 -50.2961 -1.47785 -8.53132 -92.9992 -0 -0 101.302 -3.53691e-05 -16.2655 -31.6346 8.70076 -1.16849e-05 -64.1871 -3.61812 -3.50491 -94.9698 -0 -0 98.8956 3.57753e-05 19.5748 -31.6966 -10.5828 2.2586e-05 -48.0434 
81.879 60.47 5.7183 43.9879 -82.8473 6.06579 0 -0 0 0.485295 -9.74471 3.19195 27.0212 -6.02314 -1.02186e-05 61.3195 6.59884 -26.2124 -0 26.8546 -0 -19.576 12.9075 -2.23595 -24.1154 5.36317 2.97082e-05 -57.0942 -6.43763 -16.5235 0 -27.4734 0 26.5547 -0.807205 -0.190499 3.16493 -0.497712 -50.0697 -1.62188 -8.48442 -91.6536 -0 -0 100.003 8.99768e-05 -16.2815 -31.3463 8.63932 5.73875e-06 -64.3067 -3.47227 -3.53256 -93.708 -0 -0 97.6304 0.000223513 19.3443 -31.2268 -10.3154 4.92629e-06 -48.7855 
